<svg width="33" height="33" viewBox="0 0 33 33" fill="none" xmlns="http://www.w3.org/2000/svg">
<path fill-rule="evenodd" clip-rule="evenodd" d="M8.13547 4.45061C9.04913 2.14941 11.3383 0.558868 13.966 0.558868C14.7783 0.558868 15.5578 0.710597 16.2742 0.988097C16.9905 0.710597 17.77 0.558868 18.5823 0.558868C21.21 0.558868 23.4992 2.14943 24.4129 4.45067C26.2364 5.3249 27.5831 7.05064 27.859 9.13088C28.8417 10.2022 29.4499 11.6244 29.4499 13.1926C29.4499 13.2444 29.4492 13.2961 29.4479 13.3477C30.4012 14.4124 30.9888 15.8126 30.9888 17.3543C30.9888 20.7729 28.1361 23.4482 24.7375 23.4482C23.9253 23.4482 23.1457 23.2965 22.4293 23.0189C21.713 23.2965 20.9334 23.4482 20.1211 23.4482C19.0064 23.4482 17.9548 23.1626 17.0436 22.6596C16.1323 23.1626 15.0808 23.4482 13.9661 23.4482C12.8513 23.4482 11.7997 23.1626 10.8885 22.6595C9.97722 23.1626 8.9256 23.4482 7.81085 23.4482C4.41228 23.4482 1.55957 20.7729 1.55957 17.3543C1.55957 15.8127 2.14712 14.4126 3.10032 13.3479C3.09899 13.2963 3.09832 13.2445 3.09832 13.1926C3.09832 11.6244 3.70648 10.2022 4.68919 9.13087C4.96511 7.05059 6.31184 5.32482 8.13547 4.45061ZM13.966 3.82877C12.5032 3.82877 11.3366 4.81453 11.0529 6.04789C10.9229 6.61326 10.503 7.06738 9.94949 7.24121C8.74138 7.62066 7.92191 8.68827 7.90719 9.88882C7.90145 10.3567 7.69551 10.7997 7.34151 11.1057C6.73262 11.632 6.36822 12.3771 6.36822 13.1926C6.36822 13.3593 6.3833 13.5214 6.41186 13.678C6.51781 14.259 6.30216 14.852 5.84775 15.2293C5.21182 15.7572 4.82947 16.5193 4.82947 17.3543C4.82947 18.861 6.11036 20.1783 7.81085 20.1783C8.59209 20.1783 9.29306 19.8959 9.81919 19.441C10.4332 18.9102 11.3437 18.9102 11.9577 19.441C12.4839 19.8959 13.1848 20.1783 13.9661 20.1783C14.7473 20.1783 15.4482 19.8959 15.9743 19.4411C16.5883 18.9103 17.4988 18.9103 18.1128 19.4411C18.6389 19.8959 19.3399 20.1783 20.1211 20.1783C20.6778 20.1783 21.1922 20.0351 21.6318 19.7894C22.1274 19.5125 22.7312 19.5125 23.2268 19.7894C23.6664 20.0351 24.1808 20.1783 24.7375 20.1783C26.438 20.1783 27.7189 18.861 27.7189 17.3543C27.7189 16.5192 27.3365 15.7571 26.7005 15.2292C26.2461 14.852 26.0304 14.259 26.1363 13.6779C26.1649 13.5213 26.18 13.3593 26.18 13.1926C26.18 12.3771 25.8156 11.632 25.2067 11.1057C24.8527 10.7997 24.6467 10.3567 24.641 9.88881C24.6263 8.68829 23.8068 7.6207 22.5988 7.24123C22.0453 7.06738 21.6254 6.61327 21.4954 6.04791C21.2117 4.81454 20.0451 3.82877 18.5823 3.82877C18.0256 3.82877 17.5112 3.97198 17.0716 4.21759C16.576 4.49449 15.9723 4.49449 15.4767 4.21759C15.0371 3.97198 14.5227 3.82877 13.966 3.82877Z" fill="#969696"/>
<path fill-rule="evenodd" clip-rule="evenodd" d="M3.64838 24.0946L1.55957 16.9081C5.21547 18.0246 10.4547 18.724 16.2742 18.724C22.0937 18.724 27.3328 18.0246 30.9887 16.9081L28.8999 24.0946C28.2205 26.4322 26.562 28.2812 24.4488 29.2481V31.6226H21.1789H11.3692H8.09932V29.248C5.98621 28.2811 4.3278 26.4321 3.64838 24.0946Z" fill="white"/>
<path fill-rule="evenodd" clip-rule="evenodd" d="M24.4488 29.2481C26.562 28.2812 28.2205 26.4322 28.8999 24.0946L30.9887 16.9081C29.9 17.2406 28.6709 17.5361 27.328 17.7871C24.1611 18.3791 20.3607 18.724 16.2742 18.724C12.1877 18.724 8.38724 18.3791 5.22029 17.7871C3.87731 17.536 2.64824 17.2405 1.55957 16.9081L3.64838 24.0946C4.3278 26.4321 5.98621 28.2811 8.09932 29.248V31.6226H24.4488V29.2481ZM21.3038 28.3527C21.5618 27.4464 22.2047 26.6789 23.0883 26.2746C24.3594 25.6931 25.3527 24.5831 25.7599 23.1819L26.3141 21.2752C23.2769 21.7402 19.8556 21.9939 16.2742 21.9939C12.6928 21.9939 9.27143 21.7402 6.23412 21.2752L6.78833 23.1819C7.19559 24.5831 8.1888 25.693 9.45986 26.2746C10.3435 26.6789 10.9863 27.4464 11.2444 28.3527H21.3038Z" fill="#969696"/>
<path d="M11.3688 12.8212C11.3688 13.2727 11.0028 13.6387 10.5514 13.6387C10.0999 13.6387 9.73389 13.2727 9.73389 12.8212C9.73389 12.3697 10.0999 12.0037 10.5514 12.0037C11.0028 12.0037 11.3688 12.3697 11.3688 12.8212Z" fill="#969696"/>
<path d="M14.6389 14.4556C14.6389 14.9071 14.2729 15.2731 13.8214 15.2731C13.3699 15.2731 13.0039 14.9071 13.0039 14.4556C13.0039 14.0041 13.3699 13.6381 13.8214 13.6381C14.2729 13.6381 14.6389 14.0041 14.6389 14.4556Z" fill="#969696"/>
<path d="M21.1784 9.55126C21.1784 10.0027 20.8124 10.3687 20.3609 10.3687C19.9095 10.3687 19.5435 10.0027 19.5435 9.55126C19.5435 9.09978 19.9095 8.73378 20.3609 8.73378C20.8124 8.73378 21.1784 9.09978 21.1784 9.55126Z" fill="#969696"/>
</svg>
