<svg width="18" height="20" viewBox="0 0 18 20" fill="none" xmlns="http://www.w3.org/2000/svg">
<path d="M9.00002 1.86484L8.51226 2.73782C8.81538 2.90718 9.18466 2.90718 9.48778 2.73782L9.00002 1.86484ZM13.1681 3.63315L12.1935 3.85731C12.2731 4.20311 12.5299 4.48086 12.8684 4.5872L13.1681 3.63315ZM15.1174 6.1943L14.1175 6.20656C14.121 6.49274 14.247 6.7637 14.4635 6.95085L15.1174 6.1943ZM16.0159 8.70349L15.0321 8.52414C14.9673 8.87952 15.0992 9.24222 15.3772 9.47294L16.0159 8.70349ZM12.7648 13.1351L13.2525 12.2622C12.9494 12.0928 12.5801 12.0928 12.277 12.2622L12.7648 13.1351ZM9.47063 12.8056L10.1246 12.0491C9.74906 11.7244 9.19219 11.7244 8.81664 12.0491L9.47063 12.8056ZM5.70592 12.8055L6.35993 12.0491C5.98437 11.7244 5.42747 11.7244 5.05191 12.0491L5.70592 12.8055ZM1.98407 8.70358L2.62282 9.473C2.90076 9.24226 3.03265 8.87957 2.96785 8.52419L1.98407 8.70358ZM2.88253 6.1943L3.53646 6.95085C3.75298 6.7637 3.87894 6.49274 3.88245 6.20656L2.88253 6.1943ZM4.83195 3.63314L5.1316 4.58718C5.47013 4.48086 5.72696 4.2031 5.8065 3.8573L4.83195 3.63314ZM9.48778 0.991864C8.92606 0.678014 8.27634 0.5 7.58829 0.5V2.5C7.92878 2.5 8.24339 2.58759 8.51226 2.73782L9.48778 0.991864ZM10.4117 0.5C9.7237 0.5 9.07398 0.678014 8.51226 0.991864L9.48778 2.73782C9.75665 2.58759 10.0712 2.5 10.4117 2.5V0.5ZM14.1426 3.409C13.7547 1.72231 12.2133 0.5 10.4117 0.5V2.5C11.3065 2.5 12.02 3.10294 12.1935 3.85731L14.1426 3.409ZM16.1174 6.18203C16.097 4.52187 14.9715 3.15147 13.4678 2.67911L12.8684 4.5872C13.6073 4.81929 14.1085 5.47227 14.1175 6.20656L16.1174 6.18203ZM17.0588 8.22728C17.0588 7.11045 16.5545 6.11461 15.7714 5.43774L14.4635 6.95085C14.8359 7.27275 15.0588 7.72848 15.0588 8.22728H17.0588ZM16.9997 8.88285C17.0386 8.66936 17.0588 8.45021 17.0588 8.22728H15.0588C15.0588 8.32924 15.0496 8.42835 15.0321 8.52414L16.9997 8.88285ZM15.3772 9.47294C15.7662 9.79585 16.0001 10.262 16.0001 10.7727H18.0001C18.0001 9.62834 17.4707 8.61147 16.6546 7.93404L15.3772 9.47294ZM16.0001 10.7727C16.0001 11.6943 15.2166 12.5 14.1766 12.5V14.5C16.2553 14.5 18.0001 12.8637 18.0001 10.7727H16.0001ZM14.1766 12.5C13.836 12.5 13.5214 12.4124 13.2525 12.2622L12.277 14.0081C12.8387 14.322 13.4885 14.5 14.1766 14.5V12.5ZM11.3529 14.5C12.041 14.5 12.6908 14.322 13.2525 14.0081L12.277 12.2622C12.0081 12.4124 11.6935 12.5 11.3529 12.5V14.5ZM8.81664 13.5621C9.49391 14.1476 10.3845 14.5 11.3529 14.5V12.5C10.8751 12.5 10.4464 12.3273 10.1246 12.0491L8.81664 13.5621ZM7.5883 14.5C8.55677 14.5 9.44734 14.1476 10.1246 13.5621L8.81664 12.0491C8.49484 12.3273 8.06612 12.5 7.5883 12.5V14.5ZM5.05191 13.562C5.72919 14.1476 6.61979 14.5 7.5883 14.5V12.5C7.11047 12.5 6.68173 12.3273 6.35993 12.0491L5.05191 13.562ZM3.82353 14.5C4.79204 14.5 5.68265 14.1476 6.35993 13.562L5.05191 12.0491C4.73011 12.3273 4.30137 12.5 3.82353 12.5V14.5ZM0 10.7727C0 12.8637 1.74483 14.5 3.82353 14.5V12.5C2.78344 12.5 2 11.6943 2 10.7727H0ZM1.34533 7.93416C0.529312 8.61159 0 9.62841 0 10.7727H2C2 10.262 2.23386 9.7959 2.62282 9.473L1.34533 7.93416ZM0.941162 8.22729C0.941162 8.45025 0.961359 8.66944 1.00029 8.88296L2.96785 8.52419C2.95038 8.42839 2.94116 8.32927 2.94116 8.22729H0.941162ZM2.22859 5.43775C1.4455 6.11462 0.941162 7.11045 0.941162 8.22729H2.94116C2.94116 7.72849 3.16404 7.27275 3.53646 6.95085L2.22859 5.43775ZM4.5323 2.67909C3.02848 3.15141 1.90296 4.52184 1.8826 6.18204L3.88245 6.20656C3.89146 5.47226 4.39268 4.81927 5.1316 4.58718L4.5323 2.67909ZM7.58829 0.5C5.78675 0.5 4.24536 1.7223 3.8574 3.40897L5.8065 3.8573C5.98002 3.10293 6.69356 2.5 7.58829 2.5V0.5Z" fill="#969696"/>
<mask id="path-2-inside-1_223_6019" fill="white">
<path fill-rule="evenodd" clip-rule="evenodd" d="M1.27763 14.8955L2.99447e-05 10.5C2.23612 11.1829 5.44063 11.6107 9.0001 11.6107C12.5595 11.6107 15.7639 11.1829 18 10.5L16.7224 14.8955C16.3069 16.3253 15.2925 17.4562 14 18.0476V19.5H12H6H4V18.0476C2.70754 17.4562 1.69319 16.3253 1.27763 14.8955Z"/>
</mask>
<path fill-rule="evenodd" clip-rule="evenodd" d="M1.27763 14.8955L2.99447e-05 10.5C2.23612 11.1829 5.44063 11.6107 9.0001 11.6107C12.5595 11.6107 15.7639 11.1829 18 10.5L16.7224 14.8955C16.3069 16.3253 15.2925 17.4562 14 18.0476V19.5H12H6H4V18.0476C2.70754 17.4562 1.69319 16.3253 1.27763 14.8955Z" fill="white"/>
<path d="M2.99447e-05 10.5L0.5842 8.5872C-0.11823 8.37267 -0.88173 8.56041 -1.40457 9.07623C-1.92742 9.59204 -2.12548 10.3529 -1.92049 11.0582L2.99447e-05 10.5ZM1.27763 14.8955L3.19815 14.3373L3.19815 14.3373L1.27763 14.8955ZM18 10.5L19.9206 11.0582C20.1255 10.353 19.9275 9.59208 19.4046 9.07627C18.8818 8.56046 18.1183 8.37272 17.4159 8.58723L18 10.5ZM16.7224 14.8955L14.8019 14.3373L14.8019 14.3373L16.7224 14.8955ZM14 18.0476L13.1679 16.229C12.4563 16.5545 12 17.2651 12 18.0476H14ZM14 19.5V21.5C15.1046 21.5 16 20.6046 16 19.5H14ZM4 19.5H2C2 20.6046 2.89543 21.5 4 21.5V19.5ZM4 18.0476H6C6 17.2651 5.54368 16.5545 4.83216 16.2289L4 18.0476ZM-1.92049 11.0582L-0.642895 15.4537L3.19815 14.3373L1.92055 9.94177L-1.92049 11.0582ZM9.0001 9.61069C5.57242 9.61069 2.57665 9.1957 0.5842 8.5872L-0.58414 12.4128C1.89559 13.1701 5.30884 13.6107 9.0001 13.6107V9.61069ZM17.4159 8.58723C15.4234 9.19571 12.4277 9.61069 9.0001 9.61069V13.6107C12.6913 13.6107 16.1045 13.1701 18.5842 12.4128L17.4159 8.58723ZM18.643 15.4537L19.9206 11.0582L16.0795 9.94181L14.8019 14.3373L18.643 15.4537ZM14.8321 19.8663C16.6397 19.0393 18.0609 17.4563 18.643 15.4537L14.8019 14.3373C14.5528 15.1943 13.9453 15.8732 13.1679 16.229L14.8321 19.8663ZM16 19.5V18.0476H12V19.5H16ZM12 21.5H14V17.5H12V21.5ZM6 21.5H12V17.5H6V21.5ZM4 21.5H6V17.5H4V21.5ZM2 18.0476V19.5H6V18.0476H2ZM-0.642895 15.4537C-0.0608617 17.4562 1.36034 19.0392 3.16784 19.8662L4.83216 16.2289C4.05473 15.8732 3.44724 15.1943 3.19815 14.3373L-0.642895 15.4537Z" fill="#969696" mask="url(#path-2-inside-1_223_6019)"/>
<circle cx="5.5" cy="8" r="0.5" fill="#969696"/>
<circle cx="7.5" cy="9" r="0.5" fill="#969696"/>
<circle cx="11.5" cy="6" r="0.5" fill="#969696"/>
</svg>
